<svg aria-hidden="true" style="position: absolute; width: 0; height: 0; overflow: hidden;" version="1.1" xmlns="http://www.w3.org/2000/svg" xmlns:xlink="http://www.w3.org/1999/xlink">
<defs>
<symbol id="icon-arrow" viewBox="0 0 45 32">
<path fill="#00d7ff" style="fill: var(--color1, #00d7ff)" d="M30.168 31.519c-0.61 0.642-1.626 0.642-2.258 0-0.61-0.62-0.61-1.652 0-2.27l11.448-11.63h-37.778c-0.881-0.001-1.581-0.712-1.581-1.607s0.7-1.629 1.581-1.629h37.778l-11.448-11.608c-0.61-0.642-0.61-1.675 0-2.294 0.632-0.642 1.649-0.642 2.258 0l14.158 14.383c0.632 0.62 0.632 1.652 0 2.27l-14.158 14.384z"></path>
</symbol>
<symbol id="icon-break" viewBox="0 0 2 32">
<path fill="none" stroke="#b9c3c8" style="stroke: var(--color2, #b9c3c8)" stroke-linejoin="miter" stroke-linecap="butt" stroke-miterlimit="4" stroke-width="2.1333" d="M1.067 0v32"></path>
</symbol>
<symbol id="icon-button-GO" viewBox="0 0 32 32">
<path fill="#ff851c" style="fill: var(--color3, #ff851c)" d="M28.235 16c0 6.757-5.478 12.235-12.235 12.235s-12.235-5.478-12.235-12.235c0-6.757 5.478-12.235 12.235-12.235s12.235 5.478 12.235 12.235z"></path>
<path fill="#fff" style="fill: var(--color4, #fff)" d="M13.734 12.996v5.218c0 0.956-0.237 1.656-0.712 2.101-0.474 0.452-1.193 0.678-2.157 0.678-1.664 0-2.575-0.606-2.733-1.818h1.592c0.060 0.264 0.184 0.452 0.373 0.565 0.188 0.12 0.456 0.181 0.802 0.181 0.504 0 0.843-0.124 1.016-0.373 0.173-0.241 0.264-0.621 0.271-1.141l0.011-0.655c-0.437 0.602-1.032 0.904-1.784 0.904-0.76 0-1.367-0.26-1.818-0.779-0.444-0.52-0.666-1.216-0.666-2.089 0-0.888 0.233-1.6 0.7-2.135 0.467-0.542 1.084-0.813 1.852-0.813 0.407 0 0.742 0.075 1.005 0.226 0.271 0.143 0.516 0.38 0.734 0.712v-0.779h1.513zM11.848 14.52c-0.241-0.294-0.572-0.44-0.994-0.44s-0.753 0.151-0.994 0.452c-0.233 0.294-0.35 0.708-0.35 1.242 0 0.512 0.12 0.922 0.361 1.231 0.248 0.301 0.58 0.452 0.994 0.452s0.742-0.154 0.983-0.463c0.241-0.309 0.361-0.727 0.361-1.254 0-0.52-0.12-0.926-0.361-1.22zM18.142 12.826c0.896 0 1.615 0.282 2.157 0.847 0.55 0.565 0.824 1.31 0.824 2.236 0 0.934-0.275 1.683-0.824 2.248-0.542 0.565-1.269 0.847-2.18 0.847s-1.641-0.282-2.191-0.847c-0.55-0.565-0.824-1.314-0.824-2.248 0-0.926 0.279-1.672 0.836-2.236s1.291-0.847 2.202-0.847zM18.097 14.046c-0.429 0-0.768 0.166-1.016 0.497s-0.373 0.787-0.373 1.367c0 0.595 0.124 1.058 0.373 1.389s0.595 0.497 1.039 0.497c0.444 0 0.787-0.166 1.028-0.497 0.248-0.339 0.373-0.806 0.373-1.4 0-0.58-0.128-1.032-0.384-1.355-0.248-0.331-0.595-0.497-1.039-0.497zM24.2 10.782v2.146l-0.44 3.445h-0.802l-0.44-3.422v-2.168h1.683zM24.233 17.096v1.728h-1.751v-1.728h1.751z"></path>
</symbol>
<symbol id="icon-button-Add" viewBox="0 0 32 32">
<path fill="#ff851c" style="fill: var(--color3, #ff851c)" d="M28.235 16c0 6.757-5.478 12.235-12.235 12.235s-12.235-5.478-12.235-12.235c0-6.757 5.478-12.235 12.235-12.235s12.235 5.478 12.235 12.235z"></path>
<path fill="#fff" style="fill: var(--color4, #fff)" d="M12.781 15.643h2.861v-2.861c0-0.197 0.16-0.358 0.358-0.358s0.358 0.16 0.358 0.358v2.861h2.861c0.197 0 0.358 0.16 0.358 0.358s-0.16 0.358-0.358 0.358h-2.861v2.861c0 0.197-0.16 0.358-0.358 0.358s-0.358-0.16-0.358-0.358v-2.861h-2.861c-0.197 0-0.358-0.16-0.358-0.358s0.16-0.358 0.358-0.358z"></path>
</symbol>
<symbol id="icon-clear" viewBox="0 0 32 32">
<path fill="#db0837" style="fill: var(--color5, #db0837)" d="M32 3.223l-3.223-3.223-12.777 12.777-12.777-12.777-3.223 3.223 12.777 12.777-12.777 12.777 3.223 3.223 12.777-12.777 12.777 12.777 3.223-3.223-12.777-12.777 12.777-12.777z"></path>
</symbol>
<symbol id="icon-done" viewBox="0 0 45 32">
<path fill="#24d40c" style="fill: var(--color6, #24d40c)" d="M14.255 25.313l-10.691-10.030-3.564 3.343 14.255 13.373 30.545-28.657-3.564-3.343-26.982 25.313z"></path>
</symbol>
<symbol id="icon-Ellipse" viewBox="0 0 32 32">
<path fill="#3e4e6c" style="fill: var(--color7, #3e4e6c)" d="M32 16c0 8.837-7.163 16-16 16s-16-7.163-16-16c0-8.837 7.163-16 16-16s16 7.163 16 16z"></path>
</symbol>
<symbol id="icon-Ellipse-card" viewBox="0 0 32 32">
<path fill="#00d7ff" style="fill: var(--color1, #00d7ff)" d="M32 16c0-8.837-7.163-16-16-16s-16 7.163-16 16c0 8.837 7.163 16 16 16s16-7.163 16-16z"></path>
</symbol>
<symbol id="icon-fire" viewBox="0 0 21 32">
<path fill="#ff851c" style="fill: var(--color3, #ff851c)" d="M5.548 32c-3.546-11.722 3.946-16.001 3.946-16.001-0.524 6.255 3.019 11.128 3.019 11.128 1.303-0.395 3.79-2.238 3.79-2.238 0 2.238-1.312 7.109-1.312 7.109s4.594-3.564 6.040-9.483c1.444-5.919-2.751-11.861-2.751-11.861 0.253 4.189-1.16 8.31-3.928 11.458 0.138-0.161 0.255-0.338 0.344-0.532 0.497-0.998 1.296-3.591 0.828-9.596-0.658-8.429-8.271-11.984-8.271-11.984 0.656 5.136-1.311 6.319-5.92 16.068-4.609 9.747 4.215 15.932 4.215 15.932z"></path>
</symbol>
<symbol id="icon-logout" viewBox="0 0 41 32">
<path  d="M34.324 14.899h-21.396c-1.020 0-1.847 0.827-1.847 1.847s0.827 1.847 1.847 1.847h21.396l-2.388 2.388c-0.721 0.721-0.721 1.89 0 2.612s1.89 0.721 2.612-0l5.54-5.54c0.043-0.043 0.083-0.087 0.122-0.134 0.009-0.011 0.017-0.024 0.027-0.035 0.028-0.036 0.056-0.072 0.081-0.11 0.007-0.011 0.013-0.023 0.021-0.034 0.025-0.040 0.050-0.080 0.072-0.121 0.004-0.008 0.008-0.017 0.012-0.025 0.023-0.045 0.046-0.091 0.065-0.138 0.002-0.006 0.004-0.012 0.007-0.018 0.020-0.050 0.039-0.1 0.054-0.152 0.002-0.006 0.003-0.013 0.005-0.020 0.015-0.051 0.029-0.102 0.039-0.155 0.003-0.016 0.004-0.032 0.007-0.047 0.008-0.044 0.015-0.087 0.020-0.132 0.006-0.061 0.009-0.122 0.009-0.184s-0.003-0.123-0.009-0.184c-0.004-0.045-0.012-0.089-0.020-0.133-0.003-0.015-0.004-0.031-0.007-0.046-0.011-0.053-0.024-0.105-0.039-0.156-0.002-0.006-0.003-0.012-0.005-0.018-0.016-0.052-0.034-0.103-0.055-0.153-0.002-0.005-0.004-0.011-0.006-0.017-0.020-0.048-0.042-0.094-0.066-0.139-0.004-0.008-0.008-0.016-0.012-0.024-0.023-0.042-0.048-0.082-0.073-0.122-0.007-0.011-0.013-0.022-0.020-0.033-0.025-0.038-0.053-0.074-0.081-0.11-0.009-0.012-0.017-0.024-0.026-0.035-0.039-0.047-0.079-0.091-0.122-0.134l-5.54-5.54c-0.361-0.361-0.833-0.541-1.306-0.541s-0.945 0.18-1.306 0.541c-0.721 0.721-0.721 1.89 0 2.612l2.388 2.388z"></path>
<path  d="M15.107 31.853c5.041 0 9.731-2.501 12.546-6.689 0.569-0.846 0.344-1.994-0.503-2.563s-1.994-0.344-2.563 0.503c-2.128 3.166-5.672 5.056-9.48 5.056-6.293-0-11.413-5.12-11.413-11.413s5.12-11.413 11.413-11.413c3.798 0 7.336 1.882 9.465 5.033 0.571 0.845 1.719 1.067 2.564 0.496s1.067-1.719 0.496-2.564c-2.817-4.17-7.499-6.659-12.526-6.659-8.33 0-15.107 6.777-15.107 15.107s6.777 15.107 15.107 15.107z"></path>
</symbol>
<symbol id="icon-Polygon" viewBox="0 0 77 32">
<path fill="#00d7ff" style="fill: var(--color1, #00d7ff)" d="M38.4 0l33.256 28.8h-66.511l33.255-28.8z"></path>
</symbol>
<symbol id="icon-Rectangle" viewBox="0 0 113 32">
<path fill="#fff6c0" style="fill: var(--color8, #fff6c0)" d="M0 0h96.64c8.837 0 16 7.163 16 16s-7.163 16-16 16h-96.64v-32z"></path>
</symbol>
<symbol id="icon-save" viewBox="0 0 32 32">
<path fill="#00d7ff" style="fill: var(--color1, #00d7ff)" d="M24.889 0h-21.333c-1.973 0-3.556 1.6-3.556 3.556v24.889c0 1.956 1.582 3.556 3.556 3.556h24.889c1.956 0 3.556-1.6 3.556-3.556v-21.333l-7.111-7.111zM28.444 28.444h-24.889v-24.889h19.858l5.031 5.031v19.858zM16 16c-2.951 0-5.333 2.382-5.333 5.333s2.382 5.333 5.333 5.333 5.333-2.382 5.333-5.333c0-2.951-2.382-5.333-5.333-5.333zM5.333 5.333h16v7.111h-16v-7.111z"></path>
</symbol>
<symbol id="icon-trophy" viewBox="0 0 32 32">
<path fill="#00d7ff" style="fill: var(--color1, #00d7ff)" d="M25.585 1.47h-2.613c0.009-0.289 0.015-0.581 0.015-0.873 0-0.33-0.267-0.597-0.596-0.597h-12.78c-0.33 0-0.597 0.267-0.597 0.597 0 0.293 0.005 0.584 0.015 0.873h-2.613c-0.33 0-0.597 0.267-0.597 0.597 0 2.673 0.699 5.195 1.967 7.102 1.254 1.885 2.924 2.966 4.728 3.071 0.409 0.445 0.842 0.808 1.292 1.085v2.652h-1.001c-1.21 0-2.194 0.984-2.194 2.194v1.001h-0.042c-0.329 0-0.597 0.267-0.597 0.596s0.267 0.597 0.597 0.597h10.863c0.33 0 0.597-0.267 0.597-0.597s-0.267-0.596-0.597-0.596h-0.042v-1.001c0-1.21-0.984-2.194-2.194-2.194h-1.001v-2.652c0.45-0.277 0.883-0.64 1.292-1.085 1.804-0.105 3.475-1.186 4.729-3.071 1.268-1.906 1.967-4.428 1.967-7.102 0-0.329-0.267-0.597-0.597-0.597zM8.779 8.507c-1.046-1.573-1.661-3.629-1.755-5.844h2.071c0.215 2.723 0.854 5.24 1.853 7.238 0.159 0.318 0.325 0.619 0.498 0.902-0.992-0.375-1.911-1.158-2.667-2.295zM23.221 8.507c-0.757 1.137-1.675 1.921-2.667 2.295 0.173-0.283 0.339-0.584 0.498-0.902 0.999-1.998 1.638-4.515 1.853-7.238h2.071c-0.094 2.215-0.708 4.272-1.755 5.844z"></path>
</symbol>
<symbol id="icon-star" viewBox="0 0 32 32">
<path fill="#00d7ff" style="fill: var(--color1, #00d7ff)" d="M30.608 11.163l-8.812-0.833c-0.556-0.050-1.036-0.404-1.263-0.934l-3.156-7.651c-0.505-1.263-2.298-1.263-2.803 0l-3.131 7.651c-0.202 0.53-0.707 0.884-1.263 0.934l-8.813 0.833c-1.313 0.126-1.843 1.768-0.859 2.651l6.641 5.833c0.429 0.379 0.606 0.934 0.48 1.49l-1.995 8.181c-0.303 1.288 1.086 2.348 2.247 1.667l7.348-4.318c0.48-0.278 1.061-0.278 1.54 0l7.348 4.318c1.162 0.681 2.55-0.354 2.247-1.667l-1.97-8.181c-0.126-0.556 0.051-1.111 0.48-1.49l6.641-5.833c0.96-0.884 0.404-2.525-0.909-2.651z"></path>
</symbol>
<symbol id="icon-plus" viewBox="0 0 32 32">
<path fill="#fff" style="fill: var(--color1, #fff)" d="M2.32 14.48h12.16v-12.16c0-0.839 0.681-1.52 1.52-1.52s1.52 0.681 1.52 1.52v12.16h12.16c0.839 0 1.52 0.681 1.52 1.52s-0.681 1.52-1.52 1.52h-12.16v12.16c0 0.839-0.681 1.52-1.52 1.52s-1.52-0.681-1.52-1.52v-12.16h-12.16c-0.839 0-1.52-0.681-1.52-1.52s0.681-1.52 1.52-1.52z"></path>
</symbol>
<symbol id="icongo" viewBox="0 0 50 32">
<path fill="#fff" style="fill: var(--color1, #fff)" d="M18.343 7.814v15.427c0 2.827-0.701 4.897-2.104 6.211-1.402 1.336-3.528 2.003-6.378 2.003-4.92 0-7.613-1.792-8.081-5.376h4.708c0.178 0.779 0.545 1.336 1.102 1.67 0.557 0.356 1.347 0.534 2.371 0.534 1.491 0 2.493-0.367 3.005-1.102 0.512-0.712 0.779-1.837 0.801-3.373l0.033-1.937c-1.291 1.781-3.050 2.671-5.276 2.671-2.248 0-4.040-0.768-5.376-2.304-1.313-1.536-1.97-3.595-1.97-6.177 0-2.627 0.69-4.73 2.070-6.311 1.38-1.603 3.206-2.404 5.476-2.404 1.202 0 2.193 0.223 2.972 0.668 0.801 0.423 1.525 1.124 2.17 2.104v-2.304h4.474zM12.767 12.321c-0.712-0.868-1.692-1.302-2.938-1.302s-2.226 0.445-2.938 1.336c-0.69 0.868-1.035 2.093-1.035 3.673 0 1.514 0.356 2.727 1.069 3.64 0.735 0.89 1.714 1.336 2.938 1.336s2.193-0.456 2.905-1.369c0.712-0.913 1.069-2.148 1.069-3.706 0-1.536-0.356-2.738-1.069-3.606zM31.377 7.313c2.649 0 4.775 0.835 6.378 2.504 1.625 1.67 2.438 3.873 2.438 6.611 0 2.76-0.813 4.975-2.438 6.645-1.603 1.67-3.751 2.504-6.445 2.504s-4.853-0.835-6.478-2.504c-1.625-1.67-2.438-3.885-2.438-6.645 0-2.738 0.824-4.942 2.471-6.611s3.818-2.504 6.511-2.504zM31.243 10.919c-1.269 0-2.271 0.49-3.005 1.469s-1.102 2.326-1.102 4.040c0 1.759 0.367 3.128 1.102 4.107s1.759 1.469 3.072 1.469c1.313 0 2.326-0.49 3.039-1.469 0.735-1.002 1.102-2.382 1.102-4.141 0-1.714-0.378-3.050-1.135-4.007-0.735-0.979-1.759-1.469-3.072-1.469zM49.286 1.269v6.344l-1.302 10.184h-2.371l-1.302-10.118v-6.411h4.975zM49.386 19.935v5.109h-5.176v-5.109h5.176z"></path>
</symbol>
</defs>
</svg>
